<?xml version="1.0" standalone="no"?>
<!DOCTYPE svg PUBLIC "-//W3C//DTD SVG 20010904//EN"
 "http://www.w3.org/TR/2001/REC-SVG-20010904/DTD/svg10.dtd">
<svg version="1.0" xmlns="http://www.w3.org/2000/svg"
 width="89.000000pt" height="89.000000pt" viewBox="0 0 89.000000 89.000000"
 preserveAspectRatio="xMidYMid meet">
<metadata>
Created by potrace 1.14, written by Peter Selinger 2001-2017
</metadata>
<g transform="translate(0.000000,89.000000) scale(0.100000,-0.100000)"
fill="#000000" stroke="none">
<path d="M392 858 c-5 -7 -19 -51 -31 -98 -29 -117 -88 -232 -156 -308 -60
-65 -64 -82 -31 -127 14 -19 15 -19 107 5 111 29 252 31 339 6 87 -26 89 -26
106 -9 15 15 34 55 34 71 0 4 -32 40 -70 80 -76 80 -138 192 -160 292 -19 84
-32 100 -84 100 -24 0 -48 -6 -54 -12z"/>
<path d="M93 803 c-51 -21 -83 -41 -83 -50 0 -24 50 -182 59 -188 20 -12 95
116 117 200 24 90 24 90 -93 38z"/>
<path d="M687 808 c17 -91 121 -250 149 -227 7 6 13 14 12 17 -1 4 6 42 17 86
18 76 18 79 0 92 -16 12 -160 64 -177 64 -4 0 -5 -15 -1 -32z"/>
<path d="M340 179 c-19 -6 -37 -13 -40 -15 -7 -8 123 -123 147 -130 16 -4 32
4 62 32 23 20 55 50 73 66 24 21 29 31 20 40 -15 15 -216 21 -262 7z"/>
</g>
</svg>
