<svg width="79" height="42" viewBox="0 0 79 42" fill="none" xmlns="http://www.w3.org/2000/svg">
<path d="M27.7754 39.1669L37.2231 18.3881H41.7074L51.1552 39.1669H46.0001L44.0454 34.7839H34.9043L32.9496 39.1669H27.7754ZM39.4653 24.5027L36.6674 30.7436H42.244L39.4653 24.5027Z" fill="#DAA809"/>
<path d="M53.4746 39.1669V18.3881H62.1749C64.2063 18.3881 65.8544 19.0014 67.1192 20.2098C68.384 21.4183 69.0164 22.8974 69.0164 24.665C69.0164 27.2804 67.5791 29.0661 64.6854 30.0221L72.485 39.1849H66.5443L59.1662 30.5993H58.3805V39.1849H53.4746V39.1669ZM58.4189 26.6311H61.6C62.3474 26.6311 62.9607 26.4507 63.4206 26.0719C63.8805 25.6931 64.1105 25.2242 64.1105 24.629C64.1105 23.9977 63.8805 23.5106 63.4206 23.1679C62.9415 22.8252 62.3283 22.6629 61.6 22.6629H58.4189V26.6311Z" fill="#DAA809"/>
<path d="M74.0557 39.1669V18.3881H78.9999V39.1669H74.0557Z" fill="#DAA809"/>
<path d="M27.7755 24.4594V37.1837C26.6122 38.4925 25.0852 39.4378 23.122 40.0922C21.2316 40.7466 19.1229 41.1101 16.7962 41.1101C12.6517 41.1101 9.23429 39.8013 6.47128 37.111C4.36267 35.0751 3.05388 32.7484 2.54491 29.9854H0.872559V27.8041H2.32677C2.32677 27.6586 2.32677 27.4405 2.32677 27.2951C2.32677 27.0769 2.32677 26.8588 2.32677 26.568H0.872559V24.3867H2.61762C3.12659 21.7691 4.36267 19.4423 6.32586 17.4791C7.34381 16.3885 8.5799 15.5887 9.81598 14.9343C9.45243 14.4253 9.23429 13.7709 9.08887 13.1165C9.01616 12.8256 8.94345 12.4621 8.94345 12.0985C8.94345 11.8077 8.94345 11.5896 8.94345 11.2987C8.94345 11.0079 8.94345 10.7897 9.01616 10.5716C9.01616 10.4262 9.16158 10.2808 9.307 10.2081C9.45243 10.1353 9.59785 10.2081 9.74327 10.2808C9.9614 10.4989 10.1795 10.717 10.4704 10.8625C10.4704 11.0079 10.5431 11.0806 10.6158 11.1533C10.8339 11.226 10.9794 11.226 11.1248 11.0806C11.1975 11.0079 11.1975 10.9352 11.1975 10.9352C11.1975 10.717 11.1975 10.4989 11.1975 10.2808V10.0626C11.1975 9.69908 11.1975 9.40824 11.2702 9.04469C11.3429 8.17216 11.4883 7.29963 11.7792 6.4271C11.9246 5.62728 12.2154 4.90017 12.6517 4.17307C13.0153 3.66409 13.4515 3.08241 14.0332 2.71885C14.5422 2.28259 15.1966 1.91903 15.851 1.7009C15.9964 1.7009 16.1418 1.62819 16.2872 1.55548C16.3599 1.55548 16.5054 1.55548 16.5781 1.62819C16.6508 1.7009 16.6508 1.77361 16.6508 1.84632C16.5781 2.06446 16.5781 2.20988 16.5054 2.3553C16.4327 2.57343 16.4327 2.86427 16.3599 3.08241C16.3599 3.30054 16.2872 3.51867 16.2872 3.80951C16.2872 4.02765 16.2872 4.24578 16.2872 4.46391C16.2872 4.97288 16.3599 5.55457 16.5781 5.99083C16.6508 6.35439 16.8689 6.64523 17.0143 6.93607C17.1598 7.15421 17.3779 7.29963 17.6687 7.44505C17.8869 7.66318 18.1777 7.73589 18.4686 7.73589C18.7594 7.73589 18.9775 7.66318 19.1957 7.51776C19.4865 7.37234 19.7046 7.15421 19.9228 6.86336C19.9955 6.79065 20.0682 6.64523 20.1409 6.57252C20.1409 6.57252 20.1409 6.49981 20.2136 6.49981C20.2863 6.35439 20.5772 6.35439 20.6499 6.49981C20.7226 6.71794 20.7953 6.86336 20.868 7.0815C21.0861 7.51776 21.3043 8.02674 21.377 8.53571C21.377 8.68113 21.4497 8.89926 21.4497 9.1174C21.4497 9.33553 21.4497 9.48095 21.4497 9.62637C21.4497 10.2081 21.377 10.7897 21.1589 11.2987C21.1589 11.3714 21.0861 11.4441 21.1589 11.5896C21.2316 11.8804 21.4497 11.9531 21.6678 11.8804C21.7405 11.8804 21.7405 11.8077 21.8132 11.8077C21.9587 11.735 22.1768 11.5896 22.3222 11.4441C22.3222 11.4441 22.3949 11.3714 22.4676 11.3714C22.5404 11.3714 22.6131 11.4441 22.6131 11.5168V11.8804C22.6131 12.0258 22.6131 12.1712 22.6131 12.244C22.6131 12.5348 22.5404 12.7529 22.5404 12.9711C22.3949 13.4073 22.1768 13.9163 21.9587 14.4253C24.0673 15.1524 25.8123 16.3885 27.3393 18.0608L23.122 22.1326C21.377 20.2421 19.123 19.2242 16.4327 19.2242C14.1059 19.2242 12.1427 20.024 10.6158 21.5509C9.81598 22.4962 9.16158 23.3687 8.79803 24.4594H11.0521V26.6407H8.36176C8.36176 26.8588 8.36176 27.0769 8.36176 27.3678C8.36176 27.5132 8.36176 27.7313 8.36176 27.8768H11.0521V30.0581H8.72532C9.08887 31.1487 9.74327 32.1667 10.6158 33.0392C12.1427 34.5662 14.1786 35.2933 16.7235 35.2933C19.0502 35.2933 20.7953 34.857 21.886 33.9845V30.0581H16.7235V24.4594H27.7755Z" fill="#3A2700"/>
<path d="M27.1945 23.2234V35.9478C26.0311 37.2566 24.5042 38.2018 22.541 38.8562C20.6505 39.5833 18.5419 39.8742 16.2152 39.8742C12.0706 39.8742 8.65324 38.5654 5.89023 35.8751C3.78162 33.9119 2.47283 31.5124 1.96385 28.7494H0.291504V26.5681H1.74572C1.74572 26.4227 1.74572 26.2046 1.74572 26.0591C1.74572 25.841 1.74572 25.6229 1.74572 25.332H0.291504V23.1507H2.03656C2.47283 20.6058 3.70891 18.2791 5.6721 16.3159C6.76276 15.2252 7.92613 14.3527 9.23493 13.771C8.94408 13.1893 8.65324 12.6077 8.50782 11.9533C8.43511 11.5897 8.3624 11.2262 8.28968 10.8626C8.28968 10.5718 8.28968 10.3536 8.28968 10.0628C8.28968 9.77194 8.28968 9.55381 8.3624 9.33568C8.3624 9.19026 8.50782 9.04484 8.65324 8.97212C8.79866 8.89941 8.94408 8.97212 9.01679 9.04484C9.30764 9.26297 9.52577 9.4811 9.7439 9.69923C9.81661 9.77194 9.96203 9.84465 10.0347 9.91736C10.1802 9.99007 10.3983 9.99007 10.471 9.84465C10.5437 9.77194 10.5437 9.69923 10.5437 9.62652C10.5437 9.40839 10.5437 9.19026 10.5437 8.97212V8.8267C10.5437 8.46315 10.5437 8.17231 10.6164 7.80875C10.6891 6.93622 10.8346 6.0637 11.1254 5.19117C11.3435 4.39135 11.7071 3.66424 12.1434 2.93714C12.5069 2.42816 12.9432 1.84648 13.5249 1.48292C13.9611 1.04666 14.6155 0.755815 15.2699 0.464972C15.4153 0.464972 15.5608 0.39226 15.7062 0.31955C15.7789 0.31955 15.9243 0.319549 15.997 0.39226C16.0697 0.464971 16.0697 0.537682 16.0697 0.610393C15.997 0.828525 15.997 0.973946 15.9243 1.19208C15.8516 1.41021 15.8516 1.70105 15.7789 1.91919C15.7789 2.13732 15.7062 2.35545 15.7062 2.64629C15.7062 2.86442 15.7062 3.08256 15.7062 3.30069C15.7062 3.80966 15.7789 4.39135 15.997 4.82761C16.0697 5.19117 16.2879 5.48201 16.4333 5.77285C16.6514 5.99098 16.7968 6.13641 17.0877 6.35454C17.3058 6.49996 17.5967 6.57267 17.8875 6.49996C18.1783 6.49996 18.3965 6.42725 18.6146 6.28183C18.9055 6.13641 19.1236 5.91827 19.269 5.62743C19.3417 5.55472 19.4144 5.4093 19.4871 5.33659C19.4871 5.33659 19.4871 5.26388 19.5599 5.26388C19.6326 5.11846 19.9234 5.11846 19.9961 5.26388C20.0688 5.4093 20.2142 5.62743 20.287 5.77285C20.5051 6.20912 20.7232 6.71809 20.7959 7.22707C20.7959 7.37249 20.8686 7.59062 20.8686 7.80875C20.8686 8.02688 20.8686 8.17231 20.8686 8.31773C20.8686 8.89941 20.7959 9.4811 20.5778 9.99008C20.5778 10.0628 20.5051 10.1355 20.5778 10.2809C20.6505 10.4991 20.8686 10.6445 21.1595 10.5718C21.2322 10.5718 21.2322 10.499 21.3049 10.499C21.4503 10.4263 21.6685 10.2809 21.8139 10.1355C21.8139 10.1355 21.8866 10.0628 21.9593 10.0628C22.032 10.0628 22.1047 10.1355 22.1047 10.2082V10.5718C22.1047 10.7172 22.1047 10.8626 22.1047 10.9353C22.1047 11.2262 22.032 11.4443 22.032 11.6624C21.8139 12.1714 21.5958 12.6804 21.3776 13.1893C23.4862 13.9165 25.2313 15.1525 26.7582 16.8249L22.541 20.9694C20.7959 19.0789 18.5419 18.061 15.8516 18.061C13.5249 18.061 11.5617 18.8608 10.0347 20.3877C9.16221 21.2602 8.58053 22.2055 8.21697 23.2234H10.471V25.4047H7.78071C7.78071 25.6229 7.78071 25.841 7.78071 26.1319C7.78071 26.2773 7.78071 26.4954 7.78071 26.6408H10.471V28.8221H8.14426C8.50782 29.9855 9.16221 31.0035 10.0347 31.876C11.5617 33.4029 13.5976 34.13 16.1424 34.13C18.4692 34.13 20.2142 33.6938 21.3049 32.8212V28.8221H16.1424V23.2234H27.1945Z" fill="url(#paint0_linear)"/>
<path d="M16.2145 40.2376C11.9973 40.2376 8.43444 38.8561 5.67144 36.1658C3.56283 34.2026 2.25403 31.8031 1.67235 29.1128H0V26.2771H1.45421C1.45421 26.2044 1.45421 26.1317 1.45421 26.059C1.45421 25.9135 1.45421 25.8408 1.45421 25.6954H0V22.9324H1.74506C2.25403 20.3148 3.56283 18.0608 5.4533 16.0976C6.47125 15.0796 7.56191 14.2071 8.798 13.5527C8.57986 13.1165 8.36173 12.6075 8.21631 12.0258C8.1436 11.6622 8.07089 11.2987 7.99818 10.9351C7.99818 10.6443 7.99818 10.3534 7.99818 10.0626C7.99818 9.77176 7.99818 9.55363 8.07089 9.26279C8.1436 8.97194 8.28902 8.75381 8.57986 8.6811C8.87071 8.60839 9.16155 8.6811 9.37968 8.89923C9.52511 9.04465 9.74324 9.26279 9.96137 9.40821C10.0341 9.48092 10.1795 9.55363 10.2522 9.62634C10.2522 9.48092 10.2522 9.40821 10.2522 9.3355C10.2522 9.19008 10.2522 9.11737 10.2522 8.97194V8.82652C10.2522 8.60839 10.2522 8.46297 10.2522 8.31755C10.2522 8.17213 10.2522 7.95399 10.2522 7.80857C10.3249 6.86333 10.4703 5.91809 10.7612 5.11828C10.9793 4.31846 11.3429 3.51864 11.7791 2.79153C12.2154 2.13714 12.6517 1.62816 13.2334 1.1919C13.7423 0.755632 14.3967 0.392078 15.1238 0.101235C15.342 0.101235 15.4874 0.101236 15.5601 0.0285248C15.8509 -0.0441859 16.0691 0.0285247 16.2145 0.173946C16.3599 0.319368 16.4326 0.5375 16.3599 0.755632C16.2872 0.901054 16.2872 1.04647 16.2872 1.1919C16.2145 1.41003 16.2145 1.70087 16.1418 1.919C16.1418 2.13714 16.0691 2.35527 16.0691 2.5734C16.0691 2.86424 16.0691 3.08238 16.0691 3.2278C16.0691 3.73677 16.1418 4.24575 16.2872 4.68201C16.3599 4.97285 16.5053 5.2637 16.7235 5.55454C16.8689 5.77267 17.0143 5.91809 17.2324 6.06351C17.4506 6.13623 17.6687 6.20894 17.8141 6.20894C18.0323 6.20894 18.2504 6.13623 18.4685 5.9908C18.6867 5.84538 18.9048 5.69996 19.0502 5.48183C19.0502 5.40912 19.1229 5.40912 19.1229 5.33641C19.1229 5.2637 19.1956 5.19099 19.2683 5.11828L19.4138 4.97285C19.6319 4.75472 20.1409 4.75472 20.2863 5.04557L20.5771 5.62725C20.868 6.13623 21.0134 6.71791 21.1588 7.22689V7.44502C21.1588 7.59044 21.2315 7.73586 21.2315 7.88128C21.2315 7.95399 21.2315 8.0267 21.2315 8.09941C21.2315 8.17212 21.2315 8.24484 21.2315 8.31755C21.2315 9.04466 21.0861 9.62634 20.868 10.0626V10.1353L20.9407 10.208H21.0134L21.1588 10.1353C21.3042 10.1353 21.377 10.0626 21.5224 9.91718C21.6678 9.77176 21.8132 9.77176 21.8859 9.77176C22.1768 9.77176 22.3222 9.98989 22.3222 10.208V10.5716C22.3222 10.6443 22.3222 10.717 22.3222 10.7897C22.3222 10.8624 22.3222 10.8624 22.3222 10.9351C22.3222 11.226 22.2495 11.5168 22.1768 11.735C22.1041 12.1712 21.9586 12.6075 21.8132 13.0437C23.7764 13.7709 25.5215 15.0069 26.9757 16.6793L27.1938 16.8247L22.4676 21.4055L22.2495 21.1873C20.5771 19.2969 18.3958 18.3516 15.7782 18.3516C13.5242 18.3516 11.7064 19.0787 10.2522 20.6057C9.59782 21.2601 9.08884 22.0599 8.72529 22.8597H10.8339V25.6954H8.07089C8.07089 25.8408 8.07089 25.9135 8.07089 26.059C8.07089 26.1317 8.07089 26.2044 8.07089 26.2771H10.7612V29.1128H8.57986C8.94342 29.9853 9.52511 30.8579 10.2522 31.585C11.7064 33.0392 13.7423 33.7663 16.1418 33.7663C18.3231 33.7663 19.9955 33.4027 21.0134 32.6029V29.1855H15.7782V22.9324H27.4847V36.093L27.4119 36.1658C26.1759 37.4745 24.5762 38.4925 22.6857 39.1469C20.7226 39.874 18.5412 40.2376 16.2145 40.2376ZM0.654396 28.4584H2.25403V28.6765C2.76301 31.3668 4.0718 33.6936 6.1077 35.6568C8.798 38.2744 12.2154 39.5832 16.2145 39.5832C18.4685 39.5832 20.5771 39.2196 22.4676 38.5652C24.2854 37.9835 25.7396 37.0383 26.8303 35.8022V23.5868H16.4326V28.5311H21.6678V32.9665L21.5224 33.0392C20.359 33.9844 18.5412 34.4207 16.1418 34.4207C13.5242 34.4207 11.4156 33.6209 9.81595 32.0212C8.87071 31.1487 8.21631 30.0581 7.85276 28.822L7.70734 28.4584H10.1795V26.9315H7.4892L7.41649 26.6406C7.41649 26.4225 7.41649 26.2771 7.41649 26.059C7.41649 25.8408 7.41649 25.55 7.41649 25.3319V25.041H10.1068V23.5141H7.78005L7.92547 23.0778C8.28902 22.0599 8.94342 21.0419 9.74324 20.1694C11.3429 18.5698 13.3788 17.7699 15.7782 17.7699C18.4685 17.7699 20.7226 18.7152 22.5403 20.5329L26.3213 16.8974C24.8671 15.3705 23.2674 14.2798 21.3042 13.5527L20.9407 13.4073L21.0861 13.1165C21.3042 12.6802 21.4497 12.1712 21.5951 11.5895C21.6678 11.3714 21.6678 11.1533 21.6678 10.9351C21.6678 10.9351 21.6678 10.8624 21.6678 10.7897C21.6678 10.717 21.6678 10.717 21.6678 10.6443C21.6678 10.6443 21.5224 10.717 21.4497 10.7897L21.3042 10.8624C21.0134 10.9351 20.7953 10.9351 20.6498 10.8624C20.4317 10.717 20.2863 10.5716 20.2863 10.3534C20.2136 10.208 20.2863 10.0626 20.2863 9.98989V9.91718C20.5044 9.40821 20.5771 8.97194 20.5771 8.31755C20.5771 8.24484 20.5771 8.17212 20.5771 8.09941C20.5771 8.0267 20.5771 7.88128 20.5771 7.80857C20.5771 7.73586 20.5771 7.59044 20.5044 7.44502V7.22689C20.4317 6.86333 20.2136 6.42707 19.9954 5.9908L19.7773 5.55454C19.7773 5.55454 19.7773 5.62725 19.7046 5.62725C19.7046 5.69996 19.6319 5.77267 19.5592 5.77267C19.3411 6.13623 19.1229 6.35436 18.7594 6.57249C18.5412 6.71791 18.2504 6.86333 17.8868 6.86333C17.596 6.86333 17.2324 6.79062 16.9416 6.6452C16.6508 6.42707 16.4326 6.20894 16.2145 6.06351C15.9964 5.62725 15.7782 5.33641 15.7055 4.97285C15.5601 4.46388 15.4147 3.88219 15.4147 3.30051C15.4147 3.08238 15.4147 2.79153 15.4147 2.5734C15.4147 2.35527 15.4147 2.13714 15.4874 1.84629C15.4874 1.55545 15.5601 1.33732 15.6328 1.04647C15.6328 0.901053 15.7055 0.755632 15.7055 0.610211C15.6328 0.682922 15.4874 0.755632 15.342 0.755632C14.6876 1.04648 14.1059 1.33732 13.5969 1.77358C13.1606 2.13714 12.7244 2.5734 12.3608 3.15509C11.9246 3.80948 11.6337 4.53659 11.4156 5.33641C11.1247 6.06352 10.9793 6.93604 10.9066 7.88128C10.9066 8.0267 10.9066 8.17213 10.9066 8.39026C10.9066 8.53568 10.9066 8.75381 10.9066 8.89923V8.97194C10.9066 9.11737 10.9066 9.19008 10.9066 9.26279C10.9066 9.40821 10.9066 9.48092 10.9066 9.62634C10.9066 9.69905 10.9066 9.84447 10.7612 9.98989C10.6885 10.1353 10.6158 10.208 10.4703 10.2807C10.2522 10.3534 10.1068 10.2807 9.88866 10.208C9.74324 10.1353 9.59782 9.98989 9.52511 9.91718C9.30697 9.77176 9.08884 9.55363 8.87071 9.3355L8.798 9.26279C8.65258 9.26279 8.65258 9.26279 8.65258 9.3355C8.65258 9.55363 8.57986 9.77176 8.57986 10.0626C8.57986 10.3534 8.57986 10.6443 8.57986 10.8624C8.65258 11.226 8.72529 11.5168 8.798 11.8804C9.01613 12.5348 9.23426 13.1165 9.52511 13.5527L9.74324 13.8436L9.37968 13.989C8.1436 14.5707 6.90752 15.4432 5.88957 16.4611C3.99909 18.4243 2.83572 20.6784 2.32674 23.296L2.25403 23.5141H0.654396V25.041H2.10861L2.0359 25.4046C2.0359 25.6227 2.0359 25.8408 2.0359 26.059C2.0359 26.2044 2.0359 26.3498 2.0359 26.4952L2.10861 26.8588H0.654396V28.4584ZM10.2522 9.62634C10.2522 9.69905 10.2522 9.69905 10.2522 9.62634V9.62634Z" fill="url(#paint1_linear)"/>
<defs>
<linearGradient id="paint0_linear" x1="0.295867" y1="20.1034" x2="27.1843" y2="20.1034" gradientUnits="userSpaceOnUse">
<stop stop-color="#C99004"/>
<stop offset="1" stop-color="#F5CE11"/>
</linearGradient>
<linearGradient id="paint1_linear" x1="24.9143" y1="38.2256" x2="3.68498" y2="7.906" gradientUnits="userSpaceOnUse">
<stop stop-color="#F5CD16"/>
<stop offset="0.0332" stop-color="#E9BC10"/>
<stop offset="0.0843" stop-color="#DBA809"/>
<stop offset="0.1357" stop-color="#D39C05"/>
<stop offset="0.1874" stop-color="#D09804"/>
<stop offset="0.2211" stop-color="#DAAE39"/>
<stop offset="0.2978" stop-color="#F2E3BC"/>
<stop offset="0.3358" stop-color="white"/>
<stop offset="0.3511" stop-color="#FDF6D5"/>
<stop offset="0.372" stop-color="#FAEBA2"/>
<stop offset="0.3934" stop-color="#F8E176"/>
<stop offset="0.4148" stop-color="#F6D952"/>
<stop offset="0.4362" stop-color="#F5D336"/>
<stop offset="0.4577" stop-color="#F4CE22"/>
<stop offset="0.4792" stop-color="#F3CC16"/>
<stop offset="0.501" stop-color="#F3CB12"/>
<stop offset="0.5485" stop-color="#EFC611"/>
<stop offset="0.6068" stop-color="#E5B70C"/>
<stop offset="0.6705" stop-color="#D49E05"/>
<stop offset="0.6814" stop-color="#D19904"/>
<stop offset="0.7298" stop-color="#D6A007"/>
<stop offset="0.7991" stop-color="#E5B30F"/>
<stop offset="0.8701" stop-color="#FACD1B"/>
<stop offset="1" stop-color="#D09A0F"/>
</linearGradient>
</defs>
</svg>
