<svg xmlns="http://www.w3.org/2000/svg" fill="none" viewBox="62.33 326.06 678.33 148.01">
<path d="M62.333 328.378C69.6792 329.552 77.0338 330.662 84.3969 331.708V386.573C92.2951 386.811 100.198 387.041 108.104 387.262C108.104 369.79 108.104 352.314 108.104 334.834C115.467 335.753 122.843 336.603 130.232 337.386C130.232 378.683 130.232 419.994 130.232 461.317C122.852 462.006 115.476 462.763 108.104 463.588V405.699C100.189 405.75 92.2866 405.809 84.3969 405.878V466.573C77.0338 467.56 69.6792 468.628 62.333 469.776V328.378Z" fill="#246BFD"/>
<path d="M174.97 459.601C164.205 460.29 156.014 458.415 150.371 453.655C144.727 448.896 141.899 441.356 141.899 431.493C141.899 400.556 141.899 369.619 141.899 338.682C149.288 339.422 156.685 340.102 164.091 340.723C164.091 371.158 164.091 401.593 164.091 432.029C164.091 436.077 165.033 438.957 166.919 440.667C168.932 442.368 171.755 443.133 175.39 442.963C179.034 442.81 181.76 441.815 183.671 439.99C185.581 438.166 186.702 435.282 186.702 431.352C186.702 401.717 186.702 372.081 186.702 342.446C193.836 342.943 200.983 343.364 208.117 343.722C208.117 372.328 208.117 400.938 208.117 429.553C208.117 438.663 205.289 445.732 199.62 450.938C193.951 456.144 185.747 458.925 174.97 459.601Z" fill="#246BFD"/>
<path d="M219.913 344.321C231.225 344.814 242.546 345.176 253.875 345.405C264.933 345.635 273.239 347.957 278.767 352.551C284.296 357.144 287.06 363.817 287.06 372.646C287.06 391.045 287.06 409.44 287.06 427.83C287.06 436.66 284.292 443.358 278.755 447.926C273.226 452.507 264.933 454.829 253.875 454.995C242.546 455.165 231.217 455.441 219.888 455.824C219.905 418.652 219.913 381.484 219.913 344.321ZM253.417 439.339C257.06 439.339 259.824 438.489 261.71 436.787C263.735 435.103 264.742 432.398 264.754 428.647C264.754 409.712 264.754 390.773 264.754 371.83C264.754 368.079 263.735 365.361 261.723 363.677C259.71 361.992 257.06 361.125 253.429 361.125L242.092 360.921V439.48L253.417 439.339Z" fill="#246BFD"/>
<path d="M298.007 345.598C309.328 345.47 320.653 345.206 331.982 344.807C343.039 344.398 351.32 346.312 356.848 350.765C362.377 355.218 365.129 362.07 365.129 371.257C365.129 390.378 365.129 409.517 365.129 428.673C365.129 437.877 362.369 444.746 356.848 449.28C351.332 453.809 343.039 455.812 331.982 455.506C320.661 455.2 309.332 455 297.994 454.906L298.007 345.598ZM331.612 439.621C335.256 439.689 338.02 438.894 339.905 437.235C341.927 435.534 342.937 432.795 342.937 429.018C342.937 409.7 342.937 390.387 342.937 371.078C342.937 367.267 341.927 364.541 339.905 362.899C338.02 361.253 335.256 360.501 331.625 360.59L320.3 360.858V439.468C324.071 439.519 327.842 439.621 331.612 439.621Z" fill="#246BFD"/>
<path d="M376.106 342.533C383.512 342.031 390.913 341.474 398.31 340.862C398.31 374.487 398.31 408.107 398.31 441.724C410.48 442.285 422.638 442.961 434.782 443.752V461.488C415.253 459.638 395.699 458.247 376.106 457.201C376.115 418.974 376.115 380.751 376.106 342.533Z" fill="#246BFD"/>
<path d="M441.394 336.601C461.521 334.305 481.611 331.561 501.662 328.372V348.57C488.923 350.016 476.209 351.343 463.521 352.55V387.077L493.84 386.184V406.037C483.751 405.901 473.644 405.803 463.521 405.744V445.872C476.26 446.935 488.974 448.168 501.662 449.572V469.77C481.611 466.631 461.534 464.13 441.406 462.114C441.406 420.272 441.402 378.435 441.394 336.601Z" fill="#246BFD"/>
<path d="M646.215 326.063H554.495C547.062 326.063 539.933 329.02 534.677 334.284C529.421 339.549 526.469 346.688 526.469 354.133V446C526.469 453.445 529.421 460.585 534.677 465.849C539.933 471.113 547.062 474.07 554.495 474.07H646.215C653.648 474.07 660.777 471.113 666.032 465.849C671.288 460.585 674.241 453.445 674.241 446V354.133C674.241 346.688 671.288 339.549 666.032 334.284C660.777 329.02 653.648 326.063 646.215 326.063V326.063Z" fill="#246BFD"/>
<path d="M725.1 352.526C723.812 352.802 722.589 353.322 721.495 354.057L699.648 367.378C696.223 369.483 693.412 372.453 691.495 375.99C689.526 379.602 688.497 383.652 688.501 387.767V412.418C688.499 416.542 689.533 420.601 691.507 424.22C693.433 427.766 696.259 430.741 699.699 432.845L721.711 446.166C723.137 447.048 724.728 447.626 726.387 447.863C728.036 448.094 729.715 447.976 731.317 447.519C732.935 447.05 734.443 446.261 735.75 445.196C737.075 444.106 738.174 442.767 738.985 441.254C740.092 439.181 740.669 436.867 740.667 434.517V365.489C740.663 363.489 740.228 361.513 739.393 359.696C738.567 357.911 737.358 356.329 735.852 355.065C734.375 353.828 732.63 352.954 730.756 352.513C728.897 352.066 726.957 352.071 725.1 352.526V352.526Z" fill="#246BFD"/>
<path d="M580.184 447.977C573.339 447.977 568.103 445.982 564.477 441.993C560.85 438.003 559.037 432.372 559.037 425.099V377.252C559.037 369.962 560.85 364.327 564.477 360.346C568.103 356.365 573.339 354.371 580.184 354.362C586.978 354.362 592.209 356.357 595.878 360.346C599.547 364.336 601.36 369.971 601.318 377.252V425.099C601.318 432.372 599.505 438.003 595.878 441.993C592.252 445.982 587.02 447.977 580.184 447.977ZM580.184 434.975C584.982 434.975 587.386 431.998 587.394 426.044V376.334C587.394 370.379 584.991 367.402 580.184 367.402C575.377 367.402 572.969 370.379 572.961 376.334V426.005C572.961 431.994 575.368 434.984 580.184 434.975Z" fill="white"/>
<path d="M627.717 377.252H613.156V367.109C616.353 367.201 619.547 366.849 622.647 366.062C624.886 365.52 626.924 364.346 628.519 362.681C630.206 360.593 631.501 358.215 632.341 355.664H641.704V446.676H627.717V377.252Z" fill="white"/>
</svg>