<svg width="110" height="38" viewBox="0 0 110 38" fill="none" xmlns="http://www.w3.org/2000/svg">
<circle cx="17.498" cy="18.9554" r="12.787" fill="#060827"/>
<g filter="url(#filter0_i_1026_29)">
<path fill-rule="evenodd" clip-rule="evenodd" d="M30.1925 18.7687C30.1925 18.9431 30.1891 19.1167 30.1821 19.2894L30.1576 19.2652L30.1572 19.2644L30.1547 19.2624C29.3292 18.4554 28.3647 17.8601 27.614 17.5112C27.395 17.4094 27.1936 17.3283 27.0185 17.2689L24.638 14.8884C24.9432 14.3551 24.8681 13.6634 24.4127 13.208C23.8673 12.6626 22.9832 12.6626 22.4378 13.208C21.8925 13.7533 21.8925 14.6375 22.4378 15.1828C22.8742 15.6192 23.5275 15.7064 24.0506 15.4444L26.4395 17.8332L26.0497 18.223L25.9698 18.1843C25.9283 18.1783 25.8864 18.1729 25.8442 18.1681L25.8367 18.1646L25.8365 18.1673C23.9824 17.9615 21.5548 18.9724 19.5674 20.9598C17.4955 23.0317 16.4849 25.582 16.8076 27.4622C16.7772 27.521 16.7239 27.5727 16.6565 27.6162L16.4614 27.8113L14.0883 25.4381C14.3935 24.9048 14.3184 24.2131 13.863 23.7577C13.3176 23.2123 12.4335 23.2123 11.8881 23.7577C11.3428 24.303 11.3428 25.1872 11.8881 25.7325C12.3245 26.1689 12.9778 26.2561 13.5009 25.9941L15.9083 28.4014C16.1661 29.1702 16.8603 30.4799 17.9107 31.547C17.7428 31.5536 17.574 31.5569 17.4044 31.5569C10.3417 31.5569 4.61621 25.8314 4.61621 18.7687C4.61621 11.706 10.3417 5.98053 17.4044 5.98053C24.4671 5.98053 30.1925 11.706 30.1925 18.7687ZM30.1772 19.309L30.1815 19.3046L30.181 19.3175L30.1772 19.309ZM21.6263 25.3314C22.2012 25.9063 22.2859 26.7536 21.8156 27.224C21.3452 27.6944 20.4978 27.6096 19.9229 27.0347C19.348 26.4598 19.2633 25.6125 19.7337 25.1421C20.204 24.6717 21.0514 24.7565 21.6263 25.3314ZM26.9776 21.8168C27.1001 21.9673 26.9996 22.1732 26.8162 22.2365L26.7817 22.2485C26.6174 22.3052 26.4391 22.2077 26.3042 22.098C26.2196 22.0291 26.1141 21.9799 25.996 21.954C25.8779 21.9282 25.7502 21.9264 25.623 21.9489C25.4957 21.9714 25.3722 22.0175 25.2619 22.0837C25.1517 22.1499 25.0577 22.2344 24.9873 22.3307C24.9168 22.427 24.8717 22.5325 24.8554 22.639C24.8392 22.7456 24.8523 22.8503 24.8936 22.9452C24.9592 23.0957 24.9829 23.2917 24.8638 23.4047L24.8034 23.4621C24.6899 23.5698 24.5113 23.5861 24.4084 23.4682C24.3393 23.3892 24.2834 23.3015 24.2422 23.207C24.1667 23.0337 24.1428 22.8423 24.1725 22.6476C24.2021 22.453 24.2845 22.2603 24.4133 22.0843C24.5421 21.9084 24.7138 21.754 24.9152 21.6331C25.1165 21.5121 25.3422 21.4279 25.5747 21.3868C25.8073 21.3457 26.0404 21.3489 26.2562 21.3961C26.4721 21.4433 26.6647 21.5334 26.8194 21.6592C26.8784 21.7072 26.9314 21.76 26.9776 21.8168ZM27.6311 24.9793C27.5415 24.7705 27.273 24.7699 27.1123 24.9306C26.9516 25.0913 26.9497 25.3696 26.9725 25.5957C26.9937 25.807 26.9566 26.0585 26.8986 26.2951C26.7987 26.7023 26.5423 27.1358 26.1845 27.5024C25.8267 27.8691 25.3959 28.1398 24.9846 28.2564C24.7363 28.3268 24.4688 28.3749 24.2451 28.358C24.0252 28.3414 23.7597 28.3557 23.6087 28.5164C23.4495 28.686 23.465 28.9607 23.6847 29.037C23.9974 29.1457 24.3859 29.1422 24.8119 29.0214C25.4265 28.8471 26.0703 28.4426 26.605 27.8947C27.1397 27.3468 27.5227 26.6991 27.672 26.0905C27.7765 25.6643 27.7605 25.2811 27.6311 24.9793Z" fill="url(#paint0_linear_1026_29)"/>
<path fill-rule="evenodd" clip-rule="evenodd" d="M30.1925 18.7687C30.1925 18.9431 30.1891 19.1167 30.1821 19.2894L30.1576 19.2652L30.1572 19.2644L30.1547 19.2624C29.3292 18.4554 28.3647 17.8601 27.614 17.5112C27.395 17.4094 27.1936 17.3283 27.0185 17.2689L24.638 14.8884C24.9432 14.3551 24.8681 13.6634 24.4127 13.208C23.8673 12.6626 22.9832 12.6626 22.4378 13.208C21.8925 13.7533 21.8925 14.6375 22.4378 15.1828C22.8742 15.6192 23.5275 15.7064 24.0506 15.4444L26.4395 17.8332L26.0497 18.223L25.9698 18.1843C25.9283 18.1783 25.8864 18.1729 25.8442 18.1681L25.8367 18.1646L25.8365 18.1673C23.9824 17.9615 21.5548 18.9724 19.5674 20.9598C17.4955 23.0317 16.4849 25.582 16.8076 27.4622C16.7772 27.521 16.7239 27.5727 16.6565 27.6162L16.4614 27.8113L14.0883 25.4381C14.3935 24.9048 14.3184 24.2131 13.863 23.7577C13.3176 23.2123 12.4335 23.2123 11.8881 23.7577C11.3428 24.303 11.3428 25.1872 11.8881 25.7325C12.3245 26.1689 12.9778 26.2561 13.5009 25.9941L15.9083 28.4014C16.1661 29.1702 16.8603 30.4799 17.9107 31.547C17.7428 31.5536 17.574 31.5569 17.4044 31.5569C10.3417 31.5569 4.61621 25.8314 4.61621 18.7687C4.61621 11.706 10.3417 5.98053 17.4044 5.98053C24.4671 5.98053 30.1925 11.706 30.1925 18.7687ZM30.1772 19.309L30.1815 19.3046L30.181 19.3175L30.1772 19.309ZM21.6263 25.3314C22.2012 25.9063 22.2859 26.7536 21.8156 27.224C21.3452 27.6944 20.4978 27.6096 19.9229 27.0347C19.348 26.4598 19.2633 25.6125 19.7337 25.1421C20.204 24.6717 21.0514 24.7565 21.6263 25.3314ZM26.9776 21.8168C27.1001 21.9673 26.9996 22.1732 26.8162 22.2365L26.7817 22.2485C26.6174 22.3052 26.4391 22.2077 26.3042 22.098C26.2196 22.0291 26.1141 21.9799 25.996 21.954C25.8779 21.9282 25.7502 21.9264 25.623 21.9489C25.4957 21.9714 25.3722 22.0175 25.2619 22.0837C25.1517 22.1499 25.0577 22.2344 24.9873 22.3307C24.9168 22.427 24.8717 22.5325 24.8554 22.639C24.8392 22.7456 24.8523 22.8503 24.8936 22.9452C24.9592 23.0957 24.9829 23.2917 24.8638 23.4047L24.8034 23.4621C24.6899 23.5698 24.5113 23.5861 24.4084 23.4682C24.3393 23.3892 24.2834 23.3015 24.2422 23.207C24.1667 23.0337 24.1428 22.8423 24.1725 22.6476C24.2021 22.453 24.2845 22.2603 24.4133 22.0843C24.5421 21.9084 24.7138 21.754 24.9152 21.6331C25.1165 21.5121 25.3422 21.4279 25.5747 21.3868C25.8073 21.3457 26.0404 21.3489 26.2562 21.3961C26.4721 21.4433 26.6647 21.5334 26.8194 21.6592C26.8784 21.7072 26.9314 21.76 26.9776 21.8168ZM27.6311 24.9793C27.5415 24.7705 27.273 24.7699 27.1123 24.9306C26.9516 25.0913 26.9497 25.3696 26.9725 25.5957C26.9937 25.807 26.9566 26.0585 26.8986 26.2951C26.7987 26.7023 26.5423 27.1358 26.1845 27.5024C25.8267 27.8691 25.3959 28.1398 24.9846 28.2564C24.7363 28.3268 24.4688 28.3749 24.2451 28.358C24.0252 28.3414 23.7597 28.3557 23.6087 28.5164C23.4495 28.686 23.465 28.9607 23.6847 29.037C23.9974 29.1457 24.3859 29.1422 24.8119 29.0214C25.4265 28.8471 26.0703 28.4426 26.605 27.8947C27.1397 27.3468 27.5227 26.6991 27.672 26.0905C27.7765 25.6643 27.7605 25.2811 27.6311 24.9793Z" fill="url(#paint1_linear_1026_29)"/>
</g>
<mask id="mask0_1026_29" style="mask-type:alpha" maskUnits="userSpaceOnUse" x="4" y="5" width="27" height="27">
<path fill-rule="evenodd" clip-rule="evenodd" d="M30.1821 19.2894C30.1891 19.1167 30.1925 18.9431 30.1925 18.7687C30.1925 11.706 24.4671 5.98053 17.4044 5.98053C10.3417 5.98053 4.61621 11.706 4.61621 18.7687C4.61621 25.8314 10.3417 31.5569 17.4044 31.5569C17.574 31.5569 17.7428 31.5536 17.9107 31.547C16.8603 30.4799 16.1661 29.1702 15.9083 28.4014L13.5009 25.9941C12.9778 26.2561 12.3245 26.1689 11.8881 25.7325C11.3428 25.1872 11.3428 24.303 11.8881 23.7577C12.4335 23.2123 13.3176 23.2123 13.863 23.7577C14.3184 24.2131 14.3935 24.9048 14.0883 25.4381L16.4614 27.8113L16.6565 27.6162C16.7239 27.5727 16.7772 27.521 16.8076 27.4622C16.4849 25.582 17.4955 23.0317 19.5674 20.9598C21.5548 18.9724 23.9824 17.9615 25.8365 18.1673L25.8367 18.1646L25.8442 18.1681C25.8864 18.1729 25.9283 18.1783 25.9698 18.1843L26.0497 18.223L26.4395 17.8332L24.0506 15.4444C23.5275 15.7064 22.8742 15.6192 22.4378 15.1828C21.8925 14.6375 21.8925 13.7533 22.4378 13.208C22.9832 12.6626 23.8673 12.6626 24.4127 13.208C24.8681 13.6634 24.9432 14.3551 24.638 14.8884L27.0185 17.2689C27.1936 17.3283 27.395 17.4094 27.614 17.5112C28.3647 17.8601 29.3292 18.4554 30.1547 19.2624L30.1572 19.2644L30.1576 19.2652L30.1821 19.2894ZM30.1815 19.3046L30.1772 19.309C30.1784 19.3119 30.1797 19.3147 30.181 19.3175C30.1812 19.3132 30.1813 19.3089 30.1815 19.3046ZM21.446 27.2351C21.8335 26.8476 21.7637 26.1496 21.2901 25.676C20.8165 25.2024 20.1185 25.1326 19.731 25.5201C19.3435 25.9076 19.4133 26.6056 19.8869 27.0792C20.3605 27.5527 21.0585 27.6226 21.446 27.2351ZM26.1847 21.8532C26.3361 21.8009 26.4192 21.6308 26.318 21.5066C26.2798 21.4597 26.2361 21.4161 26.1873 21.3764C26.0596 21.2725 25.9005 21.1982 25.7223 21.1591C25.5441 21.1201 25.3515 21.1175 25.1595 21.1514C24.9674 21.1854 24.7811 21.255 24.6148 21.3548C24.4485 21.4547 24.3067 21.5822 24.2003 21.7275C24.094 21.8728 24.0259 22.0319 24.0015 22.1927C23.977 22.3534 23.9967 22.5115 24.0591 22.6546C24.0931 22.7326 24.1392 22.805 24.1963 22.8703C24.2813 22.9676 24.4288 22.9542 24.5225 22.8653L24.5724 22.8179C24.6707 22.7246 24.6512 22.5627 24.597 22.4384C24.5629 22.3601 24.5521 22.2736 24.5655 22.1856C24.5789 22.0976 24.6161 22.0105 24.6743 21.931C24.7325 21.8514 24.8101 21.7817 24.9012 21.727C24.9922 21.6723 25.0942 21.6342 25.1993 21.6157C25.3044 21.5971 25.4098 21.5985 25.5073 21.6199C25.6049 21.6412 25.692 21.6819 25.7619 21.7388C25.8732 21.8294 26.0205 21.9099 26.1562 21.863L26.1847 21.8532Z" fill="url(#paint2_linear_1026_29)"/>
<path fill-rule="evenodd" clip-rule="evenodd" d="M30.1821 19.2894C30.1891 19.1167 30.1925 18.9431 30.1925 18.7687C30.1925 11.706 24.4671 5.98053 17.4044 5.98053C10.3417 5.98053 4.61621 11.706 4.61621 18.7687C4.61621 25.8314 10.3417 31.5569 17.4044 31.5569C17.574 31.5569 17.7428 31.5536 17.9107 31.547C16.8603 30.4799 16.1661 29.1702 15.9083 28.4014L13.5009 25.9941C12.9778 26.2561 12.3245 26.1689 11.8881 25.7325C11.3428 25.1872 11.3428 24.303 11.8881 23.7577C12.4335 23.2123 13.3176 23.2123 13.863 23.7577C14.3184 24.2131 14.3935 24.9048 14.0883 25.4381L16.4614 27.8113L16.6565 27.6162C16.7239 27.5727 16.7772 27.521 16.8076 27.4622C16.4849 25.582 17.4955 23.0317 19.5674 20.9598C21.5548 18.9724 23.9824 17.9615 25.8365 18.1673L25.8367 18.1646L25.8442 18.1681C25.8864 18.1729 25.9283 18.1783 25.9698 18.1843L26.0497 18.223L26.4395 17.8332L24.0506 15.4444C23.5275 15.7064 22.8742 15.6192 22.4378 15.1828C21.8925 14.6375 21.8925 13.7533 22.4378 13.208C22.9832 12.6626 23.8673 12.6626 24.4127 13.208C24.8681 13.6634 24.9432 14.3551 24.638 14.8884L27.0185 17.2689C27.1936 17.3283 27.395 17.4094 27.614 17.5112C28.3647 17.8601 29.3292 18.4554 30.1547 19.2624L30.1572 19.2644L30.1576 19.2652L30.1821 19.2894ZM30.1815 19.3046L30.1772 19.309C30.1784 19.3119 30.1797 19.3147 30.181 19.3175C30.1812 19.3132 30.1813 19.3089 30.1815 19.3046ZM21.446 27.2351C21.8335 26.8476 21.7637 26.1496 21.2901 25.676C20.8165 25.2024 20.1185 25.1326 19.731 25.5201C19.3435 25.9076 19.4133 26.6056 19.8869 27.0792C20.3605 27.5527 21.0585 27.6226 21.446 27.2351ZM26.1847 21.8532C26.3361 21.8009 26.4192 21.6308 26.318 21.5066C26.2798 21.4597 26.2361 21.4161 26.1873 21.3764C26.0596 21.2725 25.9005 21.1982 25.7223 21.1591C25.5441 21.1201 25.3515 21.1175 25.1595 21.1514C24.9674 21.1854 24.7811 21.255 24.6148 21.3548C24.4485 21.4547 24.3067 21.5822 24.2003 21.7275C24.094 21.8728 24.0259 22.0319 24.0015 22.1927C23.977 22.3534 23.9967 22.5115 24.0591 22.6546C24.0931 22.7326 24.1392 22.805 24.1963 22.8703C24.2813 22.9676 24.4288 22.9542 24.5225 22.8653L24.5724 22.8179C24.6707 22.7246 24.6512 22.5627 24.597 22.4384C24.5629 22.3601 24.5521 22.2736 24.5655 22.1856C24.5789 22.0976 24.6161 22.0105 24.6743 21.931C24.7325 21.8514 24.8101 21.7817 24.9012 21.727C24.9922 21.6723 25.0942 21.6342 25.1993 21.6157C25.3044 21.5971 25.4098 21.5985 25.5073 21.6199C25.6049 21.6412 25.692 21.6819 25.7619 21.7388C25.8732 21.8294 26.0205 21.9099 26.1562 21.863L26.1847 21.8532Z" fill="url(#paint3_linear_1026_29)"/>
</mask>
<g mask="url(#mask0_1026_29)">
<g opacity="0.65" filter="url(#filter1_f_1026_29)">
<circle cx="24.1548" cy="13.3501" r="14.8828" fill="url(#paint4_linear_1026_29)"/>
</g>
</g>
<mask id="mask1_1026_29" style="mask-type:alpha" maskUnits="userSpaceOnUse" x="4" y="5" width="27" height="27">
<path fill-rule="evenodd" clip-rule="evenodd" d="M30.1821 19.2894C30.1891 19.1167 30.1925 18.9431 30.1925 18.7687C30.1925 11.706 24.4671 5.98053 17.4044 5.98053C10.3417 5.98053 4.61621 11.706 4.61621 18.7687C4.61621 25.8314 10.3417 31.5569 17.4044 31.5569C17.574 31.5569 17.7428 31.5536 17.9107 31.547C16.8603 30.4799 16.1661 29.1702 15.9083 28.4014L13.5009 25.9941C12.9778 26.2561 12.3245 26.1689 11.8881 25.7325C11.3428 25.1872 11.3428 24.303 11.8881 23.7577C12.4335 23.2123 13.3176 23.2123 13.863 23.7577C14.3184 24.2131 14.3935 24.9048 14.0883 25.4381L16.4614 27.8113L16.6565 27.6162C16.7239 27.5727 16.7772 27.521 16.8076 27.4622C16.4849 25.582 17.4955 23.0317 19.5674 20.9598C21.5548 18.9724 23.9824 17.9615 25.8365 18.1673L25.8367 18.1646L25.8442 18.1681C25.8864 18.1729 25.9283 18.1783 25.9698 18.1843L26.0497 18.223L26.4395 17.8332L24.0506 15.4444C23.5275 15.7064 22.8742 15.6192 22.4378 15.1828C21.8925 14.6375 21.8925 13.7533 22.4378 13.208C22.9832 12.6626 23.8673 12.6626 24.4127 13.208C24.8681 13.6634 24.9432 14.3551 24.638 14.8884L27.0185 17.2689C27.1936 17.3283 27.395 17.4094 27.614 17.5112C28.3647 17.8601 29.3292 18.4554 30.1547 19.2624L30.1572 19.2644L30.1576 19.2652L30.1821 19.2894ZM30.1815 19.3046L30.1772 19.309C30.1784 19.3119 30.1797 19.3147 30.181 19.3175C30.1812 19.3132 30.1813 19.3089 30.1815 19.3046ZM21.446 27.2351C21.8335 26.8476 21.7637 26.1496 21.2901 25.676C20.8165 25.2024 20.1185 25.1326 19.731 25.5201C19.3435 25.9076 19.4133 26.6056 19.8869 27.0792C20.3605 27.5527 21.0585 27.6226 21.446 27.2351ZM26.1847 21.8532C26.3361 21.8009 26.4192 21.6308 26.318 21.5066C26.2798 21.4597 26.2361 21.4161 26.1873 21.3764C26.0596 21.2725 25.9005 21.1982 25.7223 21.1591C25.5441 21.1201 25.3515 21.1175 25.1595 21.1514C24.9674 21.1854 24.7811 21.255 24.6148 21.3548C24.4485 21.4547 24.3067 21.5822 24.2003 21.7275C24.094 21.8728 24.0259 22.0319 24.0015 22.1927C23.977 22.3534 23.9967 22.5115 24.0591 22.6546C24.0931 22.7326 24.1392 22.805 24.1963 22.8703C24.2813 22.9676 24.4288 22.9542 24.5225 22.8653L24.5724 22.8179C24.6707 22.7246 24.6512 22.5627 24.597 22.4384C24.5629 22.3601 24.5521 22.2736 24.5655 22.1856C24.5789 22.0976 24.6161 22.0105 24.6743 21.931C24.7325 21.8514 24.8101 21.7817 24.9012 21.727C24.9922 21.6723 25.0942 21.6342 25.1993 21.6157C25.3044 21.5971 25.4098 21.5985 25.5073 21.6199C25.6049 21.6412 25.692 21.6819 25.7619 21.7388C25.8732 21.8294 26.0205 21.9099 26.1562 21.863L26.1847 21.8532Z" fill="url(#paint5_linear_1026_29)"/>
<path fill-rule="evenodd" clip-rule="evenodd" d="M30.1821 19.2894C30.1891 19.1167 30.1925 18.9431 30.1925 18.7687C30.1925 11.706 24.4671 5.98053 17.4044 5.98053C10.3417 5.98053 4.61621 11.706 4.61621 18.7687C4.61621 25.8314 10.3417 31.5569 17.4044 31.5569C17.574 31.5569 17.7428 31.5536 17.9107 31.547C16.8603 30.4799 16.1661 29.1702 15.9083 28.4014L13.5009 25.9941C12.9778 26.2561 12.3245 26.1689 11.8881 25.7325C11.3428 25.1872 11.3428 24.303 11.8881 23.7577C12.4335 23.2123 13.3176 23.2123 13.863 23.7577C14.3184 24.2131 14.3935 24.9048 14.0883 25.4381L16.4614 27.8113L16.6565 27.6162C16.7239 27.5727 16.7772 27.521 16.8076 27.4622C16.4849 25.582 17.4955 23.0317 19.5674 20.9598C21.5548 18.9724 23.9824 17.9615 25.8365 18.1673L25.8367 18.1646L25.8442 18.1681C25.8864 18.1729 25.9283 18.1783 25.9698 18.1843L26.0497 18.223L26.4395 17.8332L24.0506 15.4444C23.5275 15.7064 22.8742 15.6192 22.4378 15.1828C21.8925 14.6375 21.8925 13.7533 22.4378 13.208C22.9832 12.6626 23.8673 12.6626 24.4127 13.208C24.8681 13.6634 24.9432 14.3551 24.638 14.8884L27.0185 17.2689C27.1936 17.3283 27.395 17.4094 27.614 17.5112C28.3647 17.8601 29.3292 18.4554 30.1547 19.2624L30.1572 19.2644L30.1576 19.2652L30.1821 19.2894ZM30.1815 19.3046L30.1772 19.309C30.1784 19.3119 30.1797 19.3147 30.181 19.3175C30.1812 19.3132 30.1813 19.3089 30.1815 19.3046ZM21.446 27.2351C21.8335 26.8476 21.7637 26.1496 21.2901 25.676C20.8165 25.2024 20.1185 25.1326 19.731 25.5201C19.3435 25.9076 19.4133 26.6056 19.8869 27.0792C20.3605 27.5527 21.0585 27.6226 21.446 27.2351ZM26.1847 21.8532C26.3361 21.8009 26.4192 21.6308 26.318 21.5066C26.2798 21.4597 26.2361 21.4161 26.1873 21.3764C26.0596 21.2725 25.9005 21.1982 25.7223 21.1591C25.5441 21.1201 25.3515 21.1175 25.1595 21.1514C24.9674 21.1854 24.7811 21.255 24.6148 21.3548C24.4485 21.4547 24.3067 21.5822 24.2003 21.7275C24.094 21.8728 24.0259 22.0319 24.0015 22.1927C23.977 22.3534 23.9967 22.5115 24.0591 22.6546C24.0931 22.7326 24.1392 22.805 24.1963 22.8703C24.2813 22.9676 24.4288 22.9542 24.5225 22.8653L24.5724 22.8179C24.6707 22.7246 24.6512 22.5627 24.597 22.4384C24.5629 22.3601 24.5521 22.2736 24.5655 22.1856C24.5789 22.0976 24.6161 22.0105 24.6743 21.931C24.7325 21.8514 24.8101 21.7817 24.9012 21.727C24.9922 21.6723 25.0942 21.6342 25.1993 21.6157C25.3044 21.5971 25.4098 21.5985 25.5073 21.6199C25.6049 21.6412 25.692 21.6819 25.7619 21.7388C25.8732 21.8294 26.0205 21.9099 26.1562 21.863L26.1847 21.8532Z" fill="url(#paint6_linear_1026_29)"/>
</mask>
<g mask="url(#mask1_1026_29)">
<g filter="url(#filter2_f_1026_29)">
<path d="M26.6577 -2.98747C27.3084 -2.33677 27.5105 -1.2515 27.2512 0.200147C26.992 1.65179 26.277 3.43843 25.1512 5.44781C24.0255 7.45718 22.5132 9.64587 20.7096 11.8763C18.9059 14.1068 16.8497 16.3308 14.6703 18.4087C12.4909 20.4866 10.2353 22.3733 8.04533 23.9505C5.85532 25.5276 3.77822 26.761 1.94452 27.5732C0.110829 28.3854 -1.43982 28.7589 -2.60999 28.67C-3.78016 28.5812 -4.54455 28.032 -4.85515 27.0571L4.03486 18.9814C4.17319 19.4156 4.51364 19.6602 5.03482 19.6998C5.556 19.7394 6.24664 19.573 7.06335 19.2113C7.88005 18.8496 8.80517 18.3002 9.78057 17.5978C10.756 16.8953 11.7606 16.055 12.7313 15.1295C13.7019 14.2041 14.6177 13.2135 15.4211 12.2201C16.2244 11.2267 16.8979 10.2519 17.3993 9.3569C17.9007 8.46195 18.2192 7.6662 18.3346 7.01966C18.4501 6.37311 18.3601 5.88975 18.0703 5.59993L26.6577 -2.98747Z" fill="url(#paint7_linear_1026_29)"/>
</g>
</g>
<mask id="mask2_1026_29" style="mask-type:alpha" maskUnits="userSpaceOnUse" x="4" y="5" width="27" height="27">
<path fill-rule="evenodd" clip-rule="evenodd" d="M30.1821 19.2894C30.1891 19.1167 30.1925 18.9431 30.1925 18.7687C30.1925 11.706 24.4671 5.98053 17.4044 5.98053C10.3417 5.98053 4.61621 11.706 4.61621 18.7687C4.61621 25.8314 10.3417 31.5569 17.4044 31.5569C17.574 31.5569 17.7428 31.5536 17.9107 31.547C16.8603 30.4799 16.1661 29.1702 15.9083 28.4014L13.5009 25.9941C12.9778 26.2561 12.3245 26.1689 11.8881 25.7325C11.3428 25.1872 11.3428 24.303 11.8881 23.7577C12.4335 23.2123 13.3176 23.2123 13.863 23.7577C14.3184 24.2131 14.3935 24.9048 14.0883 25.4381L16.4614 27.8113L16.6565 27.6162C16.7239 27.5727 16.7772 27.521 16.8076 27.4622C16.4849 25.582 17.4955 23.0317 19.5674 20.9598C21.5548 18.9724 23.9824 17.9615 25.8365 18.1673L25.8367 18.1646L25.8442 18.1681C25.8864 18.1729 25.9283 18.1783 25.9698 18.1843L26.0497 18.223L26.4395 17.8332L24.0506 15.4444C23.5275 15.7064 22.8742 15.6192 22.4378 15.1828C21.8925 14.6375 21.8925 13.7533 22.4378 13.208C22.9832 12.6626 23.8673 12.6626 24.4127 13.208C24.8681 13.6634 24.9432 14.3551 24.638 14.8884L27.0185 17.2689C27.1936 17.3283 27.395 17.4094 27.614 17.5112C28.3647 17.8601 29.3292 18.4554 30.1547 19.2624L30.1572 19.2644L30.1576 19.2652L30.1821 19.2894ZM30.1815 19.3046L30.1772 19.309C30.1784 19.3119 30.1797 19.3147 30.181 19.3175C30.1812 19.3132 30.1813 19.3089 30.1815 19.3046ZM21.446 27.2351C21.8335 26.8476 21.7637 26.1496 21.2901 25.676C20.8165 25.2024 20.1185 25.1326 19.731 25.5201C19.3435 25.9076 19.4133 26.6056 19.8869 27.0792C20.3605 27.5527 21.0585 27.6226 21.446 27.2351ZM26.1847 21.8532C26.3361 21.8009 26.4192 21.6308 26.318 21.5066C26.2798 21.4597 26.2361 21.4161 26.1873 21.3764C26.0596 21.2725 25.9005 21.1982 25.7223 21.1591C25.5441 21.1201 25.3515 21.1175 25.1595 21.1514C24.9674 21.1854 24.7811 21.255 24.6148 21.3548C24.4485 21.4547 24.3067 21.5822 24.2003 21.7275C24.094 21.8728 24.0259 22.0319 24.0015 22.1927C23.977 22.3534 23.9967 22.5115 24.0591 22.6546C24.0931 22.7326 24.1392 22.805 24.1963 22.8703C24.2813 22.9676 24.4288 22.9542 24.5225 22.8653L24.5724 22.8179C24.6707 22.7246 24.6512 22.5627 24.597 22.4384C24.5629 22.3601 24.5521 22.2736 24.5655 22.1856C24.5789 22.0976 24.6161 22.0105 24.6743 21.931C24.7325 21.8514 24.8101 21.7817 24.9012 21.727C24.9922 21.6723 25.0942 21.6342 25.1993 21.6157C25.3044 21.5971 25.4098 21.5985 25.5073 21.6199C25.6049 21.6412 25.692 21.6819 25.7619 21.7388C25.8732 21.8294 26.0205 21.9099 26.1562 21.863L26.1847 21.8532Z" fill="url(#paint8_linear_1026_29)"/>
<path fill-rule="evenodd" clip-rule="evenodd" d="M30.1821 19.2894C30.1891 19.1167 30.1925 18.9431 30.1925 18.7687C30.1925 11.706 24.4671 5.98053 17.4044 5.98053C10.3417 5.98053 4.61621 11.706 4.61621 18.7687C4.61621 25.8314 10.3417 31.5569 17.4044 31.5569C17.574 31.5569 17.7428 31.5536 17.9107 31.547C16.8603 30.4799 16.1661 29.1702 15.9083 28.4014L13.5009 25.9941C12.9778 26.2561 12.3245 26.1689 11.8881 25.7325C11.3428 25.1872 11.3428 24.303 11.8881 23.7577C12.4335 23.2123 13.3176 23.2123 13.863 23.7577C14.3184 24.2131 14.3935 24.9048 14.0883 25.4381L16.4614 27.8113L16.6565 27.6162C16.7239 27.5727 16.7772 27.521 16.8076 27.4622C16.4849 25.582 17.4955 23.0317 19.5674 20.9598C21.5548 18.9724 23.9824 17.9615 25.8365 18.1673L25.8367 18.1646L25.8442 18.1681C25.8864 18.1729 25.9283 18.1783 25.9698 18.1843L26.0497 18.223L26.4395 17.8332L24.0506 15.4444C23.5275 15.7064 22.8742 15.6192 22.4378 15.1828C21.8925 14.6375 21.8925 13.7533 22.4378 13.208C22.9832 12.6626 23.8673 12.6626 24.4127 13.208C24.8681 13.6634 24.9432 14.3551 24.638 14.8884L27.0185 17.2689C27.1936 17.3283 27.395 17.4094 27.614 17.5112C28.3647 17.8601 29.3292 18.4554 30.1547 19.2624L30.1572 19.2644L30.1576 19.2652L30.1821 19.2894ZM30.1815 19.3046L30.1772 19.309C30.1784 19.3119 30.1797 19.3147 30.181 19.3175C30.1812 19.3132 30.1813 19.3089 30.1815 19.3046ZM21.446 27.2351C21.8335 26.8476 21.7637 26.1496 21.2901 25.676C20.8165 25.2024 20.1185 25.1326 19.731 25.5201C19.3435 25.9076 19.4133 26.6056 19.8869 27.0792C20.3605 27.5527 21.0585 27.6226 21.446 27.2351ZM26.1847 21.8532C26.3361 21.8009 26.4192 21.6308 26.318 21.5066C26.2798 21.4597 26.2361 21.4161 26.1873 21.3764C26.0596 21.2725 25.9005 21.1982 25.7223 21.1591C25.5441 21.1201 25.3515 21.1175 25.1595 21.1514C24.9674 21.1854 24.7811 21.255 24.6148 21.3548C24.4485 21.4547 24.3067 21.5822 24.2003 21.7275C24.094 21.8728 24.0259 22.0319 24.0015 22.1927C23.977 22.3534 23.9967 22.5115 24.0591 22.6546C24.0931 22.7326 24.1392 22.805 24.1963 22.8703C24.2813 22.9676 24.4288 22.9542 24.5225 22.8653L24.5724 22.8179C24.6707 22.7246 24.6512 22.5627 24.597 22.4384C24.5629 22.3601 24.5521 22.2736 24.5655 22.1856C24.5789 22.0976 24.6161 22.0105 24.6743 21.931C24.7325 21.8514 24.8101 21.7817 24.9012 21.727C24.9922 21.6723 25.0942 21.6342 25.1993 21.6157C25.3044 21.5971 25.4098 21.5985 25.5073 21.6199C25.6049 21.6412 25.692 21.6819 25.7619 21.7388C25.8732 21.8294 26.0205 21.9099 26.1562 21.863L26.1847 21.8532Z" fill="url(#paint9_linear_1026_29)"/>
</mask>
<g mask="url(#mask2_1026_29)">
<g filter="url(#filter3_d_1026_29)">
<path fill-rule="evenodd" clip-rule="evenodd" d="M15.3634 16.3181C11.2076 20.4738 6.73048 23.5555 2.77825 25.2284C0.484969 28.5779 -0.530851 31.048 0.27187 31.8507C1.42896 33.0078 6.05045 30.3863 11.7766 25.6068C11.3458 25.0588 11.383 24.2629 11.8881 23.7577C12.4335 23.2124 13.3176 23.2124 13.863 23.7577C13.8726 23.7674 13.8821 23.7772 13.8915 23.7871C15.5248 22.3407 17.2197 20.7469 18.9276 19.0389C20.1975 17.769 21.4043 16.5063 22.5343 15.2708C22.5012 15.2433 22.469 15.2139 22.4378 15.1828C21.8925 14.6375 21.8925 13.7533 22.4378 13.208C22.9759 12.6699 23.8439 12.6628 24.3908 13.1866C29.8629 6.87042 32.9828 1.62659 31.7394 0.383199C30.8821 -0.47409 28.1231 0.742808 24.4221 3.3748C22.7868 7.41329 19.6452 12.0363 15.3634 16.3181Z" fill="url(#paint10_linear_1026_29)"/>
</g>
</g>
<g filter="url(#filter4_ii_1026_29)">
<path fill-rule="evenodd" clip-rule="evenodd" d="M15.3634 16.3181C11.2076 20.4738 6.73048 23.5555 2.77825 25.2284C0.484969 28.5779 -0.530851 31.048 0.27187 31.8507C1.42896 33.0078 6.05045 30.3863 11.7766 25.6068C11.3458 25.0588 11.383 24.2629 11.8881 23.7577C12.4335 23.2124 13.3176 23.2124 13.863 23.7577C13.8726 23.7674 13.8821 23.7772 13.8915 23.7871C15.5248 22.3407 17.2197 20.7469 18.9276 19.0389C20.1975 17.769 21.4043 16.5063 22.5343 15.2708C22.5012 15.2433 22.469 15.2139 22.4378 15.1828C21.8925 14.6375 21.8925 13.7533 22.4378 13.208C22.9759 12.6699 23.8439 12.6628 24.3908 13.1866C29.8629 6.87042 32.9828 1.62659 31.7394 0.383199C30.8821 -0.47409 28.1231 0.742808 24.4221 3.3748C22.7868 7.41329 19.6452 12.0363 15.3634 16.3181Z" fill="url(#paint11_linear_1026_29)"/>
</g>
<path fill-rule="evenodd" clip-rule="evenodd" d="M15.3634 16.3181C11.2076 20.4738 6.73048 23.5555 2.77825 25.2284C0.484969 28.5779 -0.530851 31.048 0.27187 31.8507C1.42896 33.0078 6.05045 30.3863 11.7766 25.6068C11.3458 25.0588 11.383 24.2629 11.8881 23.7577C12.4335 23.2124 13.3176 23.2124 13.863 23.7577C13.8726 23.7674 13.8821 23.7772 13.8915 23.7871C15.5248 22.3407 17.2197 20.7469 18.9276 19.0389C20.1975 17.769 21.4043 16.5063 22.5343 15.2708C22.5012 15.2433 22.469 15.2139 22.4378 15.1828C21.8925 14.6375 21.8925 13.7533 22.4378 13.208C22.9759 12.6699 23.8439 12.6628 24.3908 13.1866C29.8629 6.87042 32.9828 1.62659 31.7394 0.383199C30.8821 -0.47409 28.1231 0.742808 24.4221 3.3748C22.7868 7.41329 19.6452 12.0363 15.3634 16.3181Z" fill="url(#paint12_linear_1026_29)"/>
<mask id="mask3_1026_29" style="mask-type:alpha" maskUnits="userSpaceOnUse" x="0" y="0" width="33" height="33">
<path fill-rule="evenodd" clip-rule="evenodd" d="M15.3634 16.318C11.2076 20.4737 6.73048 23.5555 2.77825 25.2284C0.484969 28.5779 -0.530851 31.0479 0.27187 31.8507C1.42896 33.0077 6.05043 30.3863 11.7765 25.6068C11.3458 25.0588 11.383 24.2629 11.8881 23.7577C12.4335 23.2124 13.3176 23.2124 13.863 23.7577C13.8726 23.7674 13.8821 23.7772 13.8914 23.787C15.5247 22.3407 17.2197 20.7468 18.9276 19.0389C20.1975 17.769 21.4043 16.5063 22.5343 15.2708C22.5011 15.2432 22.4689 15.2139 22.4378 15.1828C21.8925 14.6375 21.8925 13.7533 22.4378 13.208C22.9759 12.6699 23.8439 12.6628 24.3907 13.1865C29.8629 6.87038 32.9828 1.62653 31.7394 0.383138C30.8821 -0.474151 28.1231 0.742747 24.4221 3.37474C22.7868 7.41323 19.6452 12.0362 15.3634 16.318Z" fill="url(#paint13_linear_1026_29)"/>
</mask>
<g mask="url(#mask3_1026_29)">
<g opacity="0.75" filter="url(#filter5_f_1026_29)">
<path fill-rule="evenodd" clip-rule="evenodd" d="M15.6256 16.2479C11.4698 20.4037 6.99269 23.4854 3.04045 25.1583C0.747175 28.5078 -0.268643 30.9779 0.534077 31.7806C1.67846 32.925 6.21154 30.3733 11.8505 25.6934C11.3431 25.1457 11.3557 24.2902 11.8881 23.7578C12.4335 23.2124 13.3176 23.2124 13.863 23.7578C13.9016 23.7964 13.9375 23.8368 13.9707 23.8786C15.6602 22.3896 17.418 20.7406 19.1898 18.9688C20.4057 17.7529 21.5637 16.5437 22.6519 15.3585C22.5763 15.3081 22.5046 15.2496 22.4378 15.1829C21.8925 14.6375 21.8925 13.7534 22.4378 13.2081C22.9832 12.6627 23.8673 12.6627 24.4127 13.2081C24.4417 13.2371 24.4693 13.2672 24.4952 13.2981C30.065 6.90102 33.2569 1.56836 32.0016 0.313069C31.1443 -0.54422 28.3853 0.672678 24.6843 3.30467C23.049 7.34316 19.9074 11.9661 15.6256 16.2479Z" fill="url(#paint14_linear_1026_29)"/>
</g>
<g opacity="0.1" filter="url(#filter6_f_1026_29)">
<path fill-rule="evenodd" clip-rule="evenodd" d="M14.1563 14.778C10.0006 18.9338 5.52345 22.0155 1.57122 23.6884C-0.722063 27.0379 -1.73788 29.508 -0.935161 30.3107C0.678606 31.9244 9.03107 26.1884 17.7206 17.4989C26.4101 8.80939 32.1461 0.456927 30.5324 -1.15684C29.6751 -2.01413 26.916 -0.797231 23.215 1.83476C21.5798 5.87325 18.4381 10.4962 14.1563 14.778Z" fill="url(#paint15_linear_1026_29)"/>
</g>
</g>
<g filter="url(#filter7_i_1026_29)">
<path d="M39.9167 29.4476L37.7119 26.1211L35.7586 29.4476H32.8576L36.3581 24.0711L32.8189 18.7332H35.8746L38.0601 22.0404L40.0328 18.7332H42.9338L39.4139 24.0711L42.9725 29.4476H39.9167ZM49.104 29.583C48.1628 29.583 47.3118 29.4218 46.5511 29.0995C45.8033 28.7772 45.2102 28.313 44.7718 27.707C44.3335 27.101 44.1078 26.3854 44.0949 25.5603H46.996C47.0346 26.1147 47.228 26.5531 47.5762 26.8754C47.9372 27.1977 48.4271 27.3589 49.046 27.3589C49.6778 27.3589 50.1742 27.2106 50.5352 26.9141C50.8962 26.6046 51.0767 26.2049 51.0767 25.715C51.0767 25.3153 50.9542 24.9865 50.7093 24.7286C50.4643 24.4708 50.1548 24.2709 49.7809 24.1291C49.4199 23.9744 48.9171 23.8068 48.2724 23.6262C47.3957 23.3684 46.6801 23.117 46.1257 22.872C45.5841 22.6141 45.1135 22.2338 44.7138 21.7309C44.327 21.2152 44.1336 20.5318 44.1336 19.6809C44.1336 18.8815 44.3335 18.1852 44.7332 17.5921C45.1329 16.999 45.6937 16.5478 46.4158 16.2383C47.1378 15.916 47.963 15.7548 48.8913 15.7548C50.2838 15.7548 51.412 16.0965 52.2758 16.7798C53.1526 17.4503 53.6361 18.3915 53.7263 19.6035H50.7479C50.7222 19.1393 50.5223 18.759 50.1484 18.4624C49.7874 18.153 49.3039 17.9983 48.6979 17.9983C48.1693 17.9983 47.7438 18.1337 47.4214 18.4044C47.112 18.6752 46.9573 19.0684 46.9573 19.5842C46.9573 19.9452 47.0733 20.2482 47.3054 20.4931C47.5504 20.7252 47.8469 20.9186 48.195 21.0734C48.5561 21.2152 49.0589 21.3828 49.7036 21.5762C50.5803 21.8341 51.2959 22.0919 51.8503 22.3498C52.4048 22.6077 52.8818 22.9945 53.2815 23.5102C53.6812 24.0259 53.881 24.7029 53.881 25.5409C53.881 26.263 53.6941 26.9334 53.3202 27.5523C52.9463 28.1712 52.3983 28.6676 51.6763 29.0415C50.9542 29.4025 50.0968 29.583 49.104 29.583ZM55.5322 24.0517C55.5322 22.9687 55.745 22.0081 56.1704 21.1701C56.6088 20.332 57.1955 19.6873 57.9304 19.236C58.6782 18.7848 59.5098 18.5591 60.4253 18.5591C61.2247 18.5591 61.9209 18.7203 62.514 19.0426C63.12 19.365 63.6035 19.7711 63.9645 20.2611V18.7332H66.6915V29.4476L63.9645 29.4476V27.8811C63.6164 28.3839 63.1329 28.803 62.514 29.1382C61.908 29.4605 61.2053 29.6217 60.4059 29.6217C59.5034 29.6217 58.6782 29.3896 57.9304 28.9254C57.1955 28.4613 56.6088 27.8102 56.1704 26.9721C55.745 26.1211 55.5322 25.1477 55.5322 24.0517ZM63.9645 24.0904C63.9645 23.4328 63.8356 22.872 63.5777 22.4078C63.3198 21.9308 62.9717 21.5697 62.5333 21.3248C62.095 21.0669 61.6244 20.938 61.1215 20.938C60.6187 20.938 60.1545 21.0605 59.729 21.3054C59.3035 21.5504 58.9554 21.9114 58.6847 22.3885C58.4268 22.8526 58.2979 23.4071 58.2979 24.0517C58.2979 24.6964 58.4268 25.2637 58.6847 25.7537C58.9554 26.2307 59.3035 26.5982 59.729 26.8561C60.1674 27.1139 60.6316 27.2429 61.1215 27.2429C61.6244 27.2429 62.095 27.1204 62.5333 26.8754C62.9717 26.6175 63.3198 26.2565 63.5777 25.7923C63.8356 25.3153 63.9645 24.748 63.9645 24.0904ZM72.4884 20.9573V26.1405C72.4884 26.5015 72.5722 26.7658 72.7398 26.9334C72.9203 27.0881 73.2169 27.1655 73.6294 27.1655H74.8866V29.4476H73.1846C70.9025 29.4476 69.7614 28.3388 69.7614 26.1211V20.9573H68.485V18.7332H69.7614V16.0836L72.4884 16.0836V18.7332H74.8866V20.9573H72.4884ZM86.9489 18.7332V29.4476H84.2219V28.0938C83.8738 28.558 83.4161 28.9254 82.8488 29.1962C82.2944 29.4541 81.6884 29.583 81.0308 29.583C80.1928 29.583 79.4514 29.409 78.8067 29.0608C78.162 28.6998 77.6527 28.1776 77.2788 27.4943C76.9178 26.798 76.7373 25.9729 76.7373 25.0187V18.7332H79.4449V24.6319C79.4449 25.4829 79.6577 26.1405 80.0832 26.6046C80.5086 27.0559 81.0888 27.2815 81.8238 27.2815C82.5716 27.2815 83.1582 27.0559 83.5837 26.6046C84.0092 26.1405 84.2219 25.4829 84.2219 24.6319V18.7332H86.9489ZM92.328 20.3964C92.6762 19.8291 93.1274 19.3843 93.6818 19.062C94.2492 18.7396 94.8938 18.5785 95.6159 18.5785V21.4215H94.9003C94.0493 21.4215 93.4046 21.6213 92.9663 22.021C92.5408 22.4207 92.328 23.117 92.328 24.1098V29.4476H89.6204V18.7332H92.328V20.3964ZM103.377 18.5785C104.653 18.5785 105.685 18.9846 106.471 19.7969C107.258 20.5963 107.651 21.718 107.651 23.1621V29.4476H104.944V23.5295C104.944 22.6786 104.731 22.0275 104.305 21.5762C103.88 21.112 103.3 20.88 102.565 20.88C101.817 20.88 101.224 21.112 100.785 21.5762C100.36 22.0275 100.147 22.6786 100.147 23.5295V29.4476H97.4396V18.7332H100.147V20.0677C100.508 19.6035 100.966 19.2425 101.52 18.9846C102.088 18.7139 102.707 18.5785 103.377 18.5785Z" fill="url(#paint16_linear_1026_29)"/>
</g>
<defs>
<filter id="filter0_i_1026_29" x="4.61621" y="5.98053" width="25.5762" height="25.7931" filterUnits="userSpaceOnUse" color-interpolation-filters="sRGB">
<feFlood flood-opacity="0" result="BackgroundImageFix"/>
<feBlend mode="normal" in="SourceGraphic" in2="BackgroundImageFix" result="shape"/>
<feColorMatrix in="SourceAlpha" type="matrix" values="0 0 0 0 0 0 0 0 0 0 0 0 0 0 0 0 0 0 127 0" result="hardAlpha"/>
<feOffset dy="0.216776"/>
<feGaussianBlur stdDeviation="0.361293"/>
<feComposite in2="hardAlpha" operator="arithmetic" k2="-1" k3="1"/>
<feColorMatrix type="matrix" values="0 0 0 0 0.984314 0 0 0 0 0.788235 0 0 0 0 0.282353 0 0 0 0.5 0"/>
<feBlend mode="normal" in2="shape" result="effect1_innerShadow_1026_29"/>
</filter>
<filter id="filter1_f_1026_29" x="8.54939" y="-2.25524" width="31.2108" height="31.2107" filterUnits="userSpaceOnUse" color-interpolation-filters="sRGB">
<feFlood flood-opacity="0" result="BackgroundImageFix"/>
<feBlend mode="normal" in="SourceGraphic" in2="BackgroundImageFix" result="shape"/>
<feGaussianBlur stdDeviation="0.361293" result="effect1_foregroundBlur_1026_29"/>
</filter>
<filter id="filter2_f_1026_29" x="-5.14402" y="-3.27652" width="32.7939" height="32.2484" filterUnits="userSpaceOnUse" color-interpolation-filters="sRGB">
<feFlood flood-opacity="0" result="BackgroundImageFix"/>
<feBlend mode="normal" in="SourceGraphic" in2="BackgroundImageFix" result="shape"/>
<feGaussianBlur stdDeviation="0.144517" result="effect1_foregroundBlur_1026_29"/>
</filter>
<filter id="filter3_d_1026_29" x="-1.44517" y="-0.611259" width="34.9016" height="34.9016" filterUnits="userSpaceOnUse" color-interpolation-filters="sRGB">
<feFlood flood-opacity="0" result="BackgroundImageFix"/>
<feColorMatrix in="SourceAlpha" type="matrix" values="0 0 0 0 0 0 0 0 0 0 0 0 0 0 0 0 0 0 127 0" result="hardAlpha"/>
<feOffset dy="0.722587"/>
<feGaussianBlur stdDeviation="0.722587"/>
<feComposite in2="hardAlpha" operator="out"/>
<feColorMatrix type="matrix" values="0 0 0 0 0.721569 0 0 0 0 0.305882 0 0 0 0 0.0823529 0 0 0 1 0"/>
<feBlend mode="normal" in2="BackgroundImageFix" result="effect1_dropShadow_1026_29"/>
<feBlend mode="normal" in="SourceGraphic" in2="effect1_dropShadow_1026_29" result="shape"/>
</filter>
<filter id="filter4_ii_1026_29" x="-0.722587" y="-0.611259" width="32.7338" height="34.0345" filterUnits="userSpaceOnUse" color-interpolation-filters="sRGB">
<feFlood flood-opacity="0" result="BackgroundImageFix"/>
<feBlend mode="normal" in="SourceGraphic" in2="BackgroundImageFix" result="shape"/>
<feColorMatrix in="SourceAlpha" type="matrix" values="0 0 0 0 0 0 0 0 0 0 0 0 0 0 0 0 0 0 127 0" result="hardAlpha"/>
<feOffset dx="-0.722587" dy="1.30066"/>
<feGaussianBlur stdDeviation="0.722587"/>
<feComposite in2="hardAlpha" operator="arithmetic" k2="-1" k3="1"/>
<feColorMatrix type="matrix" values="0 0 0 0 0.984314 0 0 0 0 0.788235 0 0 0 0 0.282353 0 0 0 0.75 0"/>
<feBlend mode="normal" in2="shape" result="effect1_innerShadow_1026_29"/>
<feColorMatrix in="SourceAlpha" type="matrix" values="0 0 0 0 0 0 0 0 0 0 0 0 0 0 0 0 0 0 127 0" result="hardAlpha"/>
<feOffset dy="-0.722587"/>
<feGaussianBlur stdDeviation="0.54194"/>
<feComposite in2="hardAlpha" operator="arithmetic" k2="-1" k3="1"/>
<feColorMatrix type="matrix" values="0 0 0 0 0.984314 0 0 0 0 0.788235 0 0 0 0 0.282353 0 0 0 0.85 0"/>
<feBlend mode="normal" in2="effect1_innerShadow_1026_29" result="effect2_innerShadow_1026_29"/>
</filter>
<filter id="filter5_f_1026_29" x="-0.0268276" y="-0.247836" width="32.5893" height="32.5893" filterUnits="userSpaceOnUse" color-interpolation-filters="sRGB">
<feFlood flood-opacity="0" result="BackgroundImageFix"/>
<feBlend mode="normal" in="SourceGraphic" in2="BackgroundImageFix" result="shape"/>
<feGaussianBlur stdDeviation="0.144517" result="effect1_foregroundBlur_1026_29"/>
</filter>
<filter id="filter6_f_1026_29" x="-1.49607" y="-1.71775" width="32.5893" height="32.5893" filterUnits="userSpaceOnUse" color-interpolation-filters="sRGB">
<feFlood flood-opacity="0" result="BackgroundImageFix"/>
<feBlend mode="normal" in="SourceGraphic" in2="BackgroundImageFix" result="shape"/>
<feGaussianBlur stdDeviation="0.144517" result="effect1_foregroundBlur_1026_29"/>
</filter>
<filter id="filter7_i_1026_29" x="32.8188" y="15.7548" width="74.8325" height="14.1336" filterUnits="userSpaceOnUse" color-interpolation-filters="sRGB">
<feFlood flood-opacity="0" result="BackgroundImageFix"/>
<feBlend mode="normal" in="SourceGraphic" in2="BackgroundImageFix" result="shape"/>
<feColorMatrix in="SourceAlpha" type="matrix" values="0 0 0 0 0 0 0 0 0 0 0 0 0 0 0 0 0 0 127 0" result="hardAlpha"/>
<feOffset dy="0.266761"/>
<feGaussianBlur stdDeviation="0.13338"/>
<feComposite in2="hardAlpha" operator="arithmetic" k2="-1" k3="1"/>
<feColorMatrix type="matrix" values="0 0 0 0 0.984314 0 0 0 0 0.788235 0 0 0 0 0.282353 0 0 0 0.7 0"/>
<feBlend mode="normal" in2="shape" result="effect1_innerShadow_1026_29"/>
</filter>
<linearGradient id="paint0_linear_1026_29" x1="15.128" y1="29.3818" x2="26.603" y2="19.516" gradientUnits="userSpaceOnUse">
<stop stop-color="#FF6B0B"/>
<stop offset="1" stop-color="#F78338"/>
</linearGradient>
<linearGradient id="paint1_linear_1026_29" x1="28.2791" y1="17.5415" x2="21.4236" y2="23.3376" gradientUnits="userSpaceOnUse">
<stop stop-color="#FBC948" stop-opacity="0.66"/>
<stop offset="1" stop-color="#FBC948" stop-opacity="0"/>
</linearGradient>
<linearGradient id="paint2_linear_1026_29" x1="15.128" y1="27.3954" x2="25.7284" y2="17.4362" gradientUnits="userSpaceOnUse">
<stop stop-color="#FF6B0B"/>
<stop offset="1" stop-color="#F78338"/>
</linearGradient>
<linearGradient id="paint3_linear_1026_29" x1="28.2791" y1="16.5602" x2="21.9368" y2="22.4197" gradientUnits="userSpaceOnUse">
<stop stop-color="#FBC948"/>
<stop offset="1" stop-color="#FBC948" stop-opacity="0"/>
</linearGradient>
<linearGradient id="paint4_linear_1026_29" x1="9.27197" y1="29.8866" x2="24.1915" y2="25.4401" gradientUnits="userSpaceOnUse">
<stop stop-color="#FBC948"/>
<stop offset="1" stop-color="#FBC948" stop-opacity="0"/>
</linearGradient>
<linearGradient id="paint5_linear_1026_29" x1="15.128" y1="27.3954" x2="25.7284" y2="17.4362" gradientUnits="userSpaceOnUse">
<stop stop-color="#FF6B0B"/>
<stop offset="1" stop-color="#F78338"/>
</linearGradient>
<linearGradient id="paint6_linear_1026_29" x1="28.2791" y1="16.5602" x2="21.9368" y2="22.4197" gradientUnits="userSpaceOnUse">
<stop stop-color="#FBC948"/>
<stop offset="1" stop-color="#FBC948" stop-opacity="0"/>
</linearGradient>
<linearGradient id="paint7_linear_1026_29" x1="31.394" y1="1.37041" x2="11.1829" y2="21.1406" gradientUnits="userSpaceOnUse">
<stop stop-color="#FBC948"/>
<stop offset="1" stop-color="#FBC948" stop-opacity="0"/>
</linearGradient>
<linearGradient id="paint8_linear_1026_29" x1="15.128" y1="27.3954" x2="25.7284" y2="17.4362" gradientUnits="userSpaceOnUse">
<stop stop-color="#FF6B0B"/>
<stop offset="1" stop-color="#F78338"/>
</linearGradient>
<linearGradient id="paint9_linear_1026_29" x1="28.2791" y1="16.5602" x2="21.9368" y2="22.4197" gradientUnits="userSpaceOnUse">
<stop stop-color="#FBC948"/>
<stop offset="1" stop-color="#FBC948" stop-opacity="0"/>
</linearGradient>
<linearGradient id="paint10_linear_1026_29" x1="17.8227" y1="3.01253" x2="-2.57219" y2="26.678" gradientUnits="userSpaceOnUse">
<stop stop-color="#F78338"/>
<stop offset="1" stop-color="#FF6B0B"/>
</linearGradient>
<linearGradient id="paint11_linear_1026_29" x1="17.8227" y1="3.01256" x2="-2.57222" y2="26.678" gradientUnits="userSpaceOnUse">
<stop stop-color="#F78338"/>
<stop offset="1" stop-color="#FF6B0B"/>
</linearGradient>
<linearGradient id="paint12_linear_1026_29" x1="29.6555" y1="8.96565" x2="17.2348" y2="23.8117" gradientUnits="userSpaceOnUse">
<stop stop-color="#FF6B0B" stop-opacity="0"/>
<stop offset="1" stop-color="#FF6B0B"/>
</linearGradient>
<linearGradient id="paint13_linear_1026_29" x1="17.8227" y1="3.0125" x2="-2.57222" y2="26.678" gradientUnits="userSpaceOnUse">
<stop stop-color="#F78338"/>
<stop offset="1" stop-color="#FF6B0B"/>
</linearGradient>
<linearGradient id="paint14_linear_1026_29" x1="17.7856" y1="23.5912" x2="12.9717" y2="18.7038" gradientUnits="userSpaceOnUse">
<stop stop-color="#FBC948"/>
<stop offset="1" stop-color="#FBC948" stop-opacity="0"/>
</linearGradient>
<linearGradient id="paint15_linear_1026_29" x1="16.3164" y1="22.1213" x2="11.5024" y2="17.2338" gradientUnits="userSpaceOnUse">
<stop stop-color="#FBC948"/>
<stop offset="1" stop-color="#FBC948" stop-opacity="0"/>
</linearGradient>
<linearGradient id="paint16_linear_1026_29" x1="70.7778" y1="15.281" x2="70.7778" y2="29.7143" gradientUnits="userSpaceOnUse">
<stop stop-color="#FBC948"/>
<stop offset="1" stop-color="#FF6B0B"/>
<stop offset="1" stop-color="#FF6B0B"/>
</linearGradient>
</defs>
</svg>
